# Blender v2.79 (sub 0) OBJ File: ''
# www.blender.org
mtllib Hexagon.mtl
o Cube
v 0.586132 -0.199073 -1.000000
v 0.586132 -0.199073 1.000000
v -0.595628 -0.199073 1.000000
v -0.595628 -0.199073 -1.000000
v 0.586133 0.190186 -0.999999
v 0.586131 0.190186 1.000001
v -0.595628 0.190186 1.000000
v -0.595628 0.190186 -1.000000
v 1.201824 0.190186 0.000001
v 1.201824 -0.199073 0.000000
v -1.206780 0.190186 -0.000000
v -1.206779 -0.199073 -0.000000
vn 0.0000 -1.0000 0.0000
vn 0.0000 1.0000 0.0000
vn 0.8515 0.0000 0.5243
vn -0.0000 -0.0000 1.0000
vn -0.8533 -0.0000 -0.5215
vn 0.0000 0.0000 -1.0000
vn -0.8533 -0.0000 0.5215
vn 0.8515 0.0000 -0.5243
usemtl Material
s off
f 1//1 10//1 2//1 3//1 12//1 4//1
f 5//2 8//2 11//2 7//2 6//2 9//2
f 10//3 9//3 6//3 2//3
f 2//4 6//4 7//4 3//4
f 12//5 11//5 8//5 4//5
f 5//6 1//6 4//6 8//6
f 3//7 7//7 11//7 12//7
f 1//8 5//8 9//8 10//8
